<svg width="800" height="345" viewBox="0 0 800 345" fill="none" xmlns="http://www.w3.org/2000/svg">
<rect width="800" height="345" rx="5" fill="#C4C4C4"/>
<rect x="15" y="48" width="770" height="265" rx="5" fill="#656565"/>
<rect x="99" y="115" width="70" height="165" rx="5" fill="#EDEDED"/>
<rect x="52" y="162" width="165" height="70" rx="5" fill="#EDEDED"/>
<path d="M62 177.556C62 174.487 64.4969 172 67.5769 172H201.423C204.503 172 207 174.487 207 177.556V216.444C207 219.513 204.503 222 201.423 222H67.5769C64.4969 222 62 219.513 62 216.444V177.556Z" fill="black"/>
<rect x="628" y="197" width="80" height="80" rx="5" fill="#EDEDED"/>
<rect x="524" y="197" width="80" height="80" rx="5" fill="#EDEDED"/>
<circle cx="667.5" cy="237.5" r="33.5" fill="#C50404"/>
<circle cx="563.5" cy="237.5" r="33.5" fill="#C50404"/>
<rect x="256" y="200" width="225" height="75" rx="5" fill="#EDEDED"/>
<rect x="281" y="225" width="70" height="25" rx="10" fill="#3D3D3D"/>
<rect x="388" y="225" width="70" height="25" rx="10" fill="#3D3D3D"/>
<rect x="109" y="125" width="50" height="145" rx="5" fill="black"/>
<path d="M139.753 144.72C139.849 145.104 139.897 145.584 139.897 146.16C139.897 146.712 139.849 147.192 139.753 147.6C139.849 147.984 139.897 148.464 139.897 149.04C139.897 149.592 139.849 150.072 139.753 150.48C139.849 150.864 139.897 151.344 139.897 151.92C139.897 152.472 139.849 152.952 139.753 153.36H138.673C138.769 153.744 138.817 154.224 138.817 154.8C138.817 155.352 138.769 155.832 138.673 156.24C138.769 156.624 138.817 157.104 138.817 157.68C138.817 158.232 138.769 158.712 138.673 159.12H137.953C138.049 159.504 138.097 159.984 138.097 160.56C138.097 161.112 138.049 161.592 137.953 162H135.793C135.697 161.592 135.649 161.112 135.649 160.56C135.649 159.984 135.697 159.504 135.793 159.12H135.073C134.977 158.712 134.929 158.232 134.929 157.68C134.929 157.104 134.977 156.624 135.073 156.24H132.913C133.009 156.624 133.057 157.104 133.057 157.68C133.057 158.232 133.009 158.712 132.913 159.12H132.193C132.289 159.504 132.337 159.984 132.337 160.56C132.337 161.112 132.289 161.592 132.193 162H130.033C129.937 161.592 129.889 161.112 129.889 160.56C129.889 159.984 129.937 159.504 130.033 159.12H129.313C129.217 158.712 129.169 158.232 129.169 157.68C129.169 157.104 129.217 156.624 129.313 156.24C129.217 155.832 129.169 155.352 129.169 154.8C129.169 154.224 129.217 153.744 129.313 153.36H128.233C128.137 152.952 128.089 152.472 128.089 151.92C128.089 151.344 128.137 150.864 128.233 150.48C128.137 150.072 128.089 149.592 128.089 149.04C128.089 148.464 128.137 147.984 128.233 147.6C128.137 147.192 128.089 146.712 128.089 146.16C128.089 145.584 128.137 145.104 128.233 144.72C128.137 144.312 128.089 143.832 128.089 143.28C128.089 142.704 128.137 142.224 128.233 141.84H131.113C131.209 142.224 131.257 142.704 131.257 143.28C131.257 143.832 131.209 144.312 131.113 144.72C131.209 145.104 131.257 145.584 131.257 146.16C131.257 146.712 131.209 147.192 131.113 147.6C131.209 147.984 131.257 148.464 131.257 149.04C131.257 149.592 131.209 150.072 131.113 150.48C131.209 150.864 131.257 151.344 131.257 151.92C131.257 152.472 131.209 152.952 131.113 153.36C131.209 153.744 131.257 154.224 131.257 154.8C131.257 155.352 131.209 155.832 131.113 156.24H132.193C132.097 155.832 132.049 155.352 132.049 154.8C132.049 154.224 132.097 153.744 132.193 153.36H132.913C132.817 152.952 132.769 152.472 132.769 151.92C132.769 151.344 132.817 150.864 132.913 150.48C132.817 150.072 132.769 149.592 132.769 149.04C132.769 148.464 132.817 147.984 132.913 147.6C132.817 147.192 132.769 146.712 132.769 146.16C132.769 145.584 132.817 145.104 132.913 144.72C132.817 144.312 132.769 143.832 132.769 143.28C132.769 142.704 132.817 142.224 132.913 141.84H135.073C135.169 142.224 135.217 142.704 135.217 143.28C135.217 143.832 135.169 144.312 135.073 144.72C135.169 145.104 135.217 145.584 135.217 146.16C135.217 146.712 135.169 147.192 135.073 147.6C135.169 147.984 135.217 148.464 135.217 149.04C135.217 149.592 135.169 150.072 135.073 150.48C135.169 150.864 135.217 151.344 135.217 151.92C135.217 152.472 135.169 152.952 135.073 153.36H135.793C135.889 153.744 135.937 154.224 135.937 154.8C135.937 155.352 135.889 155.832 135.793 156.24H136.873C136.777 155.832 136.729 155.352 136.729 154.8C136.729 154.224 136.777 153.744 136.873 153.36C136.777 152.952 136.729 152.472 136.729 151.92C136.729 151.344 136.777 150.864 136.873 150.48C136.777 150.072 136.729 149.592 136.729 149.04C136.729 148.464 136.777 147.984 136.873 147.6C136.777 147.192 136.729 146.712 136.729 146.16C136.729 145.584 136.777 145.104 136.873 144.72C136.777 144.312 136.729 143.832 136.729 143.28C136.729 142.704 136.777 142.224 136.873 141.84H139.753C139.849 142.224 139.897 142.704 139.897 143.28C139.897 143.832 139.849 144.312 139.753 144.72Z" fill="#EDEDED"/>
<path d="M192.753 196.48C192.849 196.864 192.897 197.344 192.897 197.92C192.897 198.472 192.849 198.952 192.753 199.36C192.849 199.744 192.897 200.224 192.897 200.8C192.897 201.352 192.849 201.832 192.753 202.24H191.313C191.409 202.624 191.457 203.104 191.457 203.68C191.457 204.232 191.409 204.712 191.313 205.12H189.873C189.969 205.504 190.017 205.984 190.017 206.56C190.017 207.112 189.969 207.592 189.873 208H181.233C181.137 207.592 181.089 207.112 181.089 206.56C181.089 205.984 181.137 205.504 181.233 205.12C181.137 204.712 181.089 204.232 181.089 203.68C181.089 203.104 181.137 202.624 181.233 202.24C181.137 201.832 181.089 201.352 181.089 200.8C181.089 200.224 181.137 199.744 181.233 199.36C181.137 198.952 181.089 198.472 181.089 197.92C181.089 197.344 181.137 196.864 181.233 196.48C181.137 196.072 181.089 195.592 181.089 195.04C181.089 194.464 181.137 193.984 181.233 193.6C181.137 193.192 181.089 192.712 181.089 192.16C181.089 191.584 181.137 191.104 181.233 190.72C181.137 190.312 181.089 189.832 181.089 189.28C181.089 188.704 181.137 188.224 181.233 187.84H189.873C189.969 188.224 190.017 188.704 190.017 189.28C190.017 189.832 189.969 190.312 189.873 190.72H191.313C191.409 191.104 191.457 191.584 191.457 192.16C191.457 192.712 191.409 193.192 191.313 193.6H192.753C192.849 193.984 192.897 194.464 192.897 195.04C192.897 195.592 192.849 196.072 192.753 196.48ZM189.873 202.24C189.777 201.832 189.729 201.352 189.729 200.8C189.729 200.224 189.777 199.744 189.873 199.36C189.777 198.952 189.729 198.472 189.729 197.92C189.729 197.344 189.777 196.864 189.873 196.48C189.777 196.072 189.729 195.592 189.729 195.04C189.729 194.464 189.777 193.984 189.873 193.6H188.433C188.337 193.192 188.289 192.712 188.289 192.16C188.289 191.584 188.337 191.104 188.433 190.72H184.113C184.209 191.104 184.257 191.584 184.257 192.16C184.257 192.712 184.209 193.192 184.113 193.6C184.209 193.984 184.257 194.464 184.257 195.04C184.257 195.592 184.209 196.072 184.113 196.48C184.209 196.864 184.257 197.344 184.257 197.92C184.257 198.472 184.209 198.952 184.113 199.36C184.209 199.744 184.257 200.224 184.257 200.8C184.257 201.352 184.209 201.832 184.113 202.24C184.209 202.624 184.257 203.104 184.257 203.68C184.257 204.232 184.209 204.712 184.113 205.12H188.433C188.337 204.712 188.289 204.232 188.289 203.68C188.289 203.104 188.337 202.624 188.433 202.24H189.873Z" fill="#EDEDED"/>
<path d="M569.753 180.12C569.849 180.504 569.897 180.984 569.897 181.56C569.897 182.112 569.849 182.592 569.753 183H566.873C566.777 182.592 566.729 182.112 566.729 181.56C566.729 180.984 566.777 180.504 566.873 180.12H565.793C565.697 179.712 565.649 179.232 565.649 178.68C565.649 178.104 565.697 177.624 565.793 177.24H563.633C563.537 176.832 563.489 176.352 563.489 175.8C563.489 175.224 563.537 174.744 563.633 174.36H561.113C561.209 174.744 561.257 175.224 561.257 175.8C561.257 176.352 561.209 176.832 561.113 177.24C561.209 177.624 561.257 178.104 561.257 178.68C561.257 179.232 561.209 179.712 561.113 180.12C561.209 180.504 561.257 180.984 561.257 181.56C561.257 182.112 561.209 182.592 561.113 183H558.233C558.137 182.592 558.089 182.112 558.089 181.56C558.089 180.984 558.137 180.504 558.233 180.12C558.137 179.712 558.089 179.232 558.089 178.68C558.089 178.104 558.137 177.624 558.233 177.24C558.137 176.832 558.089 176.352 558.089 175.8C558.089 175.224 558.137 174.744 558.233 174.36C558.137 173.952 558.089 173.472 558.089 172.92C558.089 172.344 558.137 171.864 558.233 171.48C558.137 171.072 558.089 170.592 558.089 170.04C558.089 169.464 558.137 168.984 558.233 168.6C558.137 168.192 558.089 167.712 558.089 167.16C558.089 166.584 558.137 166.104 558.233 165.72C558.137 165.312 558.089 164.832 558.089 164.28C558.089 163.704 558.137 163.224 558.233 162.84H561.113C561.209 163.224 561.257 163.704 561.257 164.28C561.257 164.832 561.209 165.312 561.113 165.72C561.209 166.104 561.257 166.584 561.257 167.16C561.257 167.712 561.209 168.192 561.113 168.6C561.209 168.984 561.257 169.464 561.257 170.04C561.257 170.592 561.209 171.072 561.113 171.48H563.633C563.537 171.072 563.489 170.592 563.489 170.04C563.489 169.464 563.537 168.984 563.633 168.6H565.793C565.697 168.192 565.649 167.712 565.649 167.16C565.649 166.584 565.697 166.104 565.793 165.72H566.873C566.777 165.312 566.729 164.832 566.729 164.28C566.729 163.704 566.777 163.224 566.873 162.84H569.753C569.849 163.224 569.897 163.704 569.897 164.28C569.897 164.832 569.849 165.312 569.753 165.72H568.673C568.769 166.104 568.817 166.584 568.817 167.16C568.817 167.712 568.769 168.192 568.673 168.6H566.513C566.609 168.984 566.657 169.464 566.657 170.04C566.657 170.592 566.609 171.072 566.513 171.48H564.713C564.809 171.864 564.857 172.344 564.857 172.92C564.857 173.472 564.809 173.952 564.713 174.36H566.513C566.609 174.744 566.657 175.224 566.657 175.8C566.657 176.352 566.609 176.832 566.513 177.24H568.673C568.769 177.624 568.817 178.104 568.817 178.68C568.817 179.232 568.769 179.712 568.673 180.12H569.753Z" fill="#EDEDED"/>
<path d="M673.753 180.12C673.849 180.504 673.897 180.984 673.897 181.56C673.897 182.112 673.849 182.592 673.753 183H663.673C663.577 182.592 663.529 182.112 663.529 181.56C663.529 180.984 663.577 180.504 663.673 180.12C663.577 179.712 663.529 179.232 663.529 178.68C663.529 178.104 663.577 177.624 663.673 177.24C663.577 176.832 663.529 176.352 663.529 175.8C663.529 175.224 663.577 174.744 663.673 174.36C663.577 173.952 663.529 173.472 663.529 172.92C663.529 172.344 663.577 171.864 663.673 171.48C663.577 171.072 663.529 170.592 663.529 170.04C663.529 169.464 663.577 168.984 663.673 168.6C663.577 168.192 663.529 167.712 663.529 167.16C663.529 166.584 663.577 166.104 663.673 165.72C663.577 165.312 663.529 164.832 663.529 164.28C663.529 163.704 663.577 163.224 663.673 162.84H666.553C666.649 163.224 666.697 163.704 666.697 164.28C666.697 164.832 666.649 165.312 666.553 165.72C666.649 166.104 666.697 166.584 666.697 167.16C666.697 167.712 666.649 168.192 666.553 168.6C666.649 168.984 666.697 169.464 666.697 170.04C666.697 170.592 666.649 171.072 666.553 171.48C666.649 171.864 666.697 172.344 666.697 172.92C666.697 173.472 666.649 173.952 666.553 174.36C666.649 174.744 666.697 175.224 666.697 175.8C666.697 176.352 666.649 176.832 666.553 177.24C666.649 177.624 666.697 178.104 666.697 178.68C666.697 179.232 666.649 179.712 666.553 180.12H673.753Z" fill="#EDEDED"/>
<path d="M90.897 203.68C90.897 204.232 90.849 204.712 90.753 205.12C90.849 205.504 90.897 205.984 90.897 206.56C90.897 207.112 90.849 207.592 90.753 208H87.873C87.777 207.592 87.729 207.112 87.729 206.56C87.729 205.984 87.777 205.504 87.873 205.12C87.777 204.712 87.729 204.232 87.729 203.68C87.729 203.104 87.777 202.624 87.873 202.24H82.113C82.209 202.624 82.257 203.104 82.257 203.68C82.257 204.232 82.209 204.712 82.113 205.12C82.209 205.504 82.257 205.984 82.257 206.56C82.257 207.112 82.209 207.592 82.113 208H79.233C79.137 207.592 79.089 207.112 79.089 206.56C79.089 205.984 79.137 205.504 79.233 205.12C79.137 204.712 79.089 204.232 79.089 203.68C79.089 203.104 79.137 202.624 79.233 202.24H80.313C80.217 201.832 80.169 201.352 80.169 200.8C80.169 200.224 80.217 199.744 80.313 199.36C80.217 198.952 80.169 198.472 80.169 197.92C80.169 197.344 80.217 196.864 80.313 196.48H81.033C80.937 196.072 80.889 195.592 80.889 195.04C80.889 194.464 80.937 193.984 81.033 193.6H82.113C82.017 193.192 81.969 192.712 81.969 192.16C81.969 191.584 82.017 191.104 82.113 190.72H82.833C82.737 190.312 82.689 189.832 82.689 189.28C82.689 188.704 82.737 188.224 82.833 187.84H87.153C87.249 188.224 87.297 188.704 87.297 189.28C87.297 189.832 87.249 190.312 87.153 190.72H87.873C87.969 191.104 88.017 191.584 88.017 192.16C88.017 192.712 87.969 193.192 87.873 193.6H88.953C89.049 193.984 89.097 194.464 89.097 195.04C89.097 195.592 89.049 196.072 88.953 196.48H89.673C89.769 196.864 89.817 197.344 89.817 197.92C89.817 198.472 89.769 198.952 89.673 199.36C89.769 199.744 89.817 200.224 89.817 200.8C89.817 201.352 89.769 201.832 89.673 202.24H90.753C90.849 202.624 90.897 203.104 90.897 203.68ZM86.793 199.36C86.697 198.952 86.649 198.472 86.649 197.92C86.649 197.344 86.697 196.864 86.793 196.48H86.073C85.977 196.072 85.929 195.592 85.929 195.04C85.929 194.464 85.977 193.984 86.073 193.6H83.913C84.009 193.984 84.057 194.464 84.057 195.04C84.057 195.592 84.009 196.072 83.913 196.48H83.193C83.289 196.864 83.337 197.344 83.337 197.92C83.337 198.472 83.289 198.952 83.193 199.36H86.793Z" fill="#EDEDED"/>
<path d="M139.753 245.36C139.849 245.744 139.897 246.224 139.897 246.8C139.897 247.352 139.849 247.832 139.753 248.24C139.849 248.624 139.897 249.104 139.897 249.68C139.897 250.232 139.849 250.712 139.753 251.12H138.313C138.409 251.504 138.457 251.984 138.457 252.56C138.457 253.112 138.409 253.592 138.313 254H129.673C129.577 253.592 129.529 253.112 129.529 252.56C129.529 251.984 129.577 251.504 129.673 251.12H128.233C128.137 250.712 128.089 250.232 128.089 249.68C128.089 249.104 128.137 248.624 128.233 248.24H131.113C131.209 248.624 131.257 249.104 131.257 249.68C131.257 250.232 131.209 250.712 131.113 251.12H136.873C136.777 250.712 136.729 250.232 136.729 249.68C136.729 249.104 136.777 248.624 136.873 248.24C136.777 247.832 136.729 247.352 136.729 246.8C136.729 246.224 136.777 245.744 136.873 245.36H129.673C129.577 244.952 129.529 244.472 129.529 243.92C129.529 243.344 129.577 242.864 129.673 242.48H128.233C128.137 242.072 128.089 241.592 128.089 241.04C128.089 240.464 128.137 239.984 128.233 239.6C128.137 239.192 128.089 238.712 128.089 238.16C128.089 237.584 128.137 237.104 128.233 236.72H129.673C129.577 236.312 129.529 235.832 129.529 235.28C129.529 234.704 129.577 234.224 129.673 233.84H138.313C138.409 234.224 138.457 234.704 138.457 235.28C138.457 235.832 138.409 236.312 138.313 236.72H139.753C139.849 237.104 139.897 237.584 139.897 238.16C139.897 238.712 139.849 239.192 139.753 239.6H136.873C136.777 239.192 136.729 238.712 136.729 238.16C136.729 237.584 136.777 237.104 136.873 236.72H131.113C131.209 237.104 131.257 237.584 131.257 238.16C131.257 238.712 131.209 239.192 131.113 239.6C131.209 239.984 131.257 240.464 131.257 241.04C131.257 241.592 131.209 242.072 131.113 242.48H138.313C138.409 242.864 138.457 243.344 138.457 243.92C138.457 244.472 138.409 244.952 138.313 245.36H139.753Z" fill="#EDEDED"/>
<path d="M491.192 101.304V104.508C492.02 104.472 493.82 104.4 495.152 104.4H512.396V121.392H494.72C493.208 121.392 491.66 121.284 490.724 121.176V124.452C491.696 124.38 493.316 124.308 494.792 124.308H512.396C512.36 125.172 512.36 125.928 512.324 126.324H515.564C515.528 125.748 515.42 124.128 515.42 122.832V104.256C515.42 103.392 515.492 102.276 515.528 101.448C514.808 101.484 513.728 101.52 512.864 101.52H495.116C493.964 101.52 492.38 101.448 491.192 101.304ZM538.46 101.7V106.56H527.84C526.58 106.56 525.248 106.452 524.492 106.38V109.476C525.248 109.404 526.58 109.368 527.912 109.368H538.46C538.46 116.748 535.508 122.076 528.704 125.28L531.512 127.368C538.784 123.12 541.448 117.288 541.484 109.368H551.024C552.14 109.368 553.616 109.404 554.192 109.476V106.416C553.616 106.488 552.248 106.56 551.06 106.56H541.484V101.736C541.484 100.656 541.592 98.856 541.7 98.136H538.136C538.316 98.856 538.46 100.62 538.46 101.7ZM567.332 98.748L566.288 101.412C571.256 102.06 580.688 104.112 585.08 105.696L586.232 102.924C581.696 101.34 572.012 99.324 567.332 98.748ZM565.712 108.252L564.632 110.952C569.744 111.708 578.528 113.688 582.704 115.344L583.856 112.572C579.356 110.916 570.644 109.08 565.712 108.252ZM563.732 118.728L562.616 121.464C568.448 122.4 579.14 124.812 583.928 126.9L585.152 124.128C580.22 122.148 569.78 119.664 563.732 118.728ZM599.192 101.304V104.508C600.02 104.472 601.82 104.4 603.152 104.4H620.396V121.392H602.72C601.208 121.392 599.66 121.284 598.724 121.176V124.452C599.696 124.38 601.316 124.308 602.792 124.308H620.396C620.36 125.172 620.36 125.928 620.324 126.324H623.564C623.528 125.748 623.42 124.128 623.42 122.832V104.256C623.42 103.392 623.492 102.276 623.528 101.448C622.808 101.484 621.728 101.52 620.864 101.52H603.116C601.964 101.52 600.38 101.448 599.192 101.304ZM662.444 103.176L660.176 101.34C659.672 101.52 658.844 101.628 657.836 101.628H636.38C635.12 101.628 633.716 101.484 632.708 101.34V104.58C633.428 104.508 634.976 104.364 636.38 104.364H657.548C655.748 107.604 651.608 112.896 646.316 116.856C643.868 114.66 640.916 112.248 639.584 111.276L637.244 113.184C639.152 114.516 643.328 118.116 645.488 120.276C647.756 122.616 650.636 125.784 651.968 127.62L654.596 125.532C653.156 123.768 650.6 121.068 648.44 118.908C654.38 114.372 658.952 108.504 661.544 104.292C661.76 103.968 662.084 103.572 662.444 103.176ZM673.172 99.612L671.12 101.808C673.784 103.608 678.284 107.46 680.084 109.332L682.352 107.064C680.336 105.048 675.728 101.304 673.172 99.612ZM670.076 123.732L671.984 126.684C677.996 125.568 682.532 123.372 686.132 121.104C691.568 117.684 695.78 112.788 698.228 108.288L696.5 105.228C694.412 109.656 690.02 114.984 684.476 118.476C681.056 120.6 676.376 122.796 670.076 123.732ZM724.616 100.08L722.636 100.98C723.824 102.6 724.94 104.58 725.84 106.452L727.892 105.516C727.064 103.824 725.516 101.412 724.616 100.08ZM728.972 98.28L726.992 99.216C728.216 100.8 729.368 102.708 730.34 104.616L732.356 103.608C731.492 101.952 729.908 99.54 728.972 98.28ZM711.98 123.3C711.98 124.632 711.908 126.396 711.764 127.548H715.22C715.112 126.396 715.004 124.452 715.004 123.3V111.456C719 112.716 725.228 115.092 729.116 117.216L730.376 114.156C726.56 112.248 719.756 109.692 715.004 108.216V102.348C715.004 101.268 715.112 99.72 715.256 98.604H711.692C711.908 99.72 711.98 101.34 711.98 102.348V123.3Z" fill="#C50404"/>
</svg>
