<svg width="800" height="345" viewBox="0 0 800 345" fill="none" xmlns="http://www.w3.org/2000/svg">
<rect width="800" height="345" rx="5" fill="#C4C4C4"/>
<rect x="15" y="48" width="770" height="265" rx="5" fill="#656565"/>
<rect x="99" y="115" width="70" height="165" rx="5" fill="#EDEDED"/>
<rect x="52" y="162" width="165" height="70" rx="5" fill="#EDEDED"/>
<path d="M159 177.556C159 174.487 159.827 172 160.846 172H205.154C206.173 172 207 174.487 207 177.556V216.444C207 219.513 206.173 222 205.154 222H160.846C159.827 222 159 219.513 159 216.444V177.556Z" fill="black"/>
<path d="M62 177.556C62 174.487 64.4969 172 67.5769 172H201.423C204.503 172 207 174.487 207 177.556V216.444C207 219.513 204.503 222 201.423 222H67.5769C64.4969 222 62 219.513 62 216.444V177.556Z" fill="black"/>
<path d="M62 177.556C62 174.487 62.8093 172 63.8077 172H107.192C108.191 172 109 174.487 109 177.556V216.444C109 219.513 108.191 222 107.192 222H63.8077C62.8093 222 62 219.513 62 216.444V177.556Z" fill="black"/>
<rect x="628" y="197" width="80" height="80" rx="5" fill="#EDEDED"/>
<rect x="524" y="197" width="80" height="80" rx="5" fill="#EDEDED"/>
<circle cx="667.5" cy="237.5" r="33.5" fill="#C50404"/>
<circle cx="563.5" cy="237.5" r="33.5" fill="#C50404"/>
<rect x="256" y="200" width="225" height="75" rx="5" fill="#EDEDED"/>
<rect x="281" y="225" width="70" height="25" rx="10" fill="#3D3D3D"/>
<rect x="388" y="225" width="70" height="25" rx="10" fill="#3D3D3D"/>
<path d="M109 130C109 127.239 111.239 125 114 125H154C156.761 125 159 127.239 159 130V180H109V130Z" fill="black"/>
<path d="M109 215H159V265C159 267.761 156.761 270 154 270H114C111.239 270 109 267.761 109 265V215Z" fill="black"/>
<path d="M569.753 180.12C569.849 180.504 569.897 180.984 569.897 181.56C569.897 182.112 569.849 182.592 569.753 183H566.873C566.777 182.592 566.729 182.112 566.729 181.56C566.729 180.984 566.777 180.504 566.873 180.12H565.793C565.697 179.712 565.649 179.232 565.649 178.68C565.649 178.104 565.697 177.624 565.793 177.24H563.633C563.537 176.832 563.489 176.352 563.489 175.8C563.489 175.224 563.537 174.744 563.633 174.36H561.113C561.209 174.744 561.257 175.224 561.257 175.8C561.257 176.352 561.209 176.832 561.113 177.24C561.209 177.624 561.257 178.104 561.257 178.68C561.257 179.232 561.209 179.712 561.113 180.12C561.209 180.504 561.257 180.984 561.257 181.56C561.257 182.112 561.209 182.592 561.113 183H558.233C558.137 182.592 558.089 182.112 558.089 181.56C558.089 180.984 558.137 180.504 558.233 180.12C558.137 179.712 558.089 179.232 558.089 178.68C558.089 178.104 558.137 177.624 558.233 177.24C558.137 176.832 558.089 176.352 558.089 175.8C558.089 175.224 558.137 174.744 558.233 174.36C558.137 173.952 558.089 173.472 558.089 172.92C558.089 172.344 558.137 171.864 558.233 171.48C558.137 171.072 558.089 170.592 558.089 170.04C558.089 169.464 558.137 168.984 558.233 168.6C558.137 168.192 558.089 167.712 558.089 167.16C558.089 166.584 558.137 166.104 558.233 165.72C558.137 165.312 558.089 164.832 558.089 164.28C558.089 163.704 558.137 163.224 558.233 162.84H561.113C561.209 163.224 561.257 163.704 561.257 164.28C561.257 164.832 561.209 165.312 561.113 165.72C561.209 166.104 561.257 166.584 561.257 167.16C561.257 167.712 561.209 168.192 561.113 168.6C561.209 168.984 561.257 169.464 561.257 170.04C561.257 170.592 561.209 171.072 561.113 171.48H563.633C563.537 171.072 563.489 170.592 563.489 170.04C563.489 169.464 563.537 168.984 563.633 168.6H565.793C565.697 168.192 565.649 167.712 565.649 167.16C565.649 166.584 565.697 166.104 565.793 165.72H566.873C566.777 165.312 566.729 164.832 566.729 164.28C566.729 163.704 566.777 163.224 566.873 162.84H569.753C569.849 163.224 569.897 163.704 569.897 164.28C569.897 164.832 569.849 165.312 569.753 165.72H568.673C568.769 166.104 568.817 166.584 568.817 167.16C568.817 167.712 568.769 168.192 568.673 168.6H566.513C566.609 168.984 566.657 169.464 566.657 170.04C566.657 170.592 566.609 171.072 566.513 171.48H564.713C564.809 171.864 564.857 172.344 564.857 172.92C564.857 173.472 564.809 173.952 564.713 174.36H566.513C566.609 174.744 566.657 175.224 566.657 175.8C566.657 176.352 566.609 176.832 566.513 177.24H568.673C568.769 177.624 568.817 178.104 568.817 178.68C568.817 179.232 568.769 179.712 568.673 180.12H569.753Z" fill="#EDEDED"/>
<path d="M673.753 180.12C673.849 180.504 673.897 180.984 673.897 181.56C673.897 182.112 673.849 182.592 673.753 183H663.673C663.577 182.592 663.529 182.112 663.529 181.56C663.529 180.984 663.577 180.504 663.673 180.12C663.577 179.712 663.529 179.232 663.529 178.68C663.529 178.104 663.577 177.624 663.673 177.24C663.577 176.832 663.529 176.352 663.529 175.8C663.529 175.224 663.577 174.744 663.673 174.36C663.577 173.952 663.529 173.472 663.529 172.92C663.529 172.344 663.577 171.864 663.673 171.48C663.577 171.072 663.529 170.592 663.529 170.04C663.529 169.464 663.577 168.984 663.673 168.6C663.577 168.192 663.529 167.712 663.529 167.16C663.529 166.584 663.577 166.104 663.673 165.72C663.577 165.312 663.529 164.832 663.529 164.28C663.529 163.704 663.577 163.224 663.673 162.84H666.553C666.649 163.224 666.697 163.704 666.697 164.28C666.697 164.832 666.649 165.312 666.553 165.72C666.649 166.104 666.697 166.584 666.697 167.16C666.697 167.712 666.649 168.192 666.553 168.6C666.649 168.984 666.697 169.464 666.697 170.04C666.697 170.592 666.649 171.072 666.553 171.48C666.649 171.864 666.697 172.344 666.697 172.92C666.697 173.472 666.649 173.952 666.553 174.36C666.649 174.744 666.697 175.224 666.697 175.8C666.697 176.352 666.649 176.832 666.553 177.24C666.649 177.624 666.697 178.104 666.697 178.68C666.697 179.232 666.649 179.712 666.553 180.12H673.753Z" fill="#EDEDED"/>
<path d="M491.192 101.304V104.508C492.02 104.472 493.82 104.4 495.152 104.4H512.396V121.392H494.72C493.208 121.392 491.66 121.284 490.724 121.176V124.452C491.696 124.38 493.316 124.308 494.792 124.308H512.396C512.36 125.172 512.36 125.928 512.324 126.324H515.564C515.528 125.748 515.42 124.128 515.42 122.832V104.256C515.42 103.392 515.492 102.276 515.528 101.448C514.808 101.484 513.728 101.52 512.864 101.52H495.116C493.964 101.52 492.38 101.448 491.192 101.304ZM554.444 103.176L552.176 101.34C551.672 101.52 550.844 101.628 549.836 101.628H528.38C527.12 101.628 525.716 101.484 524.708 101.34V104.58C525.428 104.508 526.976 104.364 528.38 104.364H549.548C547.748 107.604 543.608 112.896 538.316 116.856C535.868 114.66 532.916 112.248 531.584 111.276L529.244 113.184C531.152 114.516 535.328 118.116 537.488 120.276C539.756 122.616 542.636 125.784 543.968 127.62L546.596 125.532C545.156 123.768 542.6 121.068 540.44 118.908C546.38 114.372 550.952 108.504 553.544 104.292C553.76 103.968 554.084 103.572 554.444 103.176ZM567.332 98.748L566.288 101.412C571.256 102.06 580.688 104.112 585.08 105.696L586.232 102.924C581.696 101.34 572.012 99.324 567.332 98.748ZM565.712 108.252L564.632 110.952C569.744 111.708 578.528 113.688 582.704 115.344L583.856 112.572C579.356 110.916 570.644 109.08 565.712 108.252ZM563.732 118.728L562.616 121.464C568.448 122.4 579.14 124.812 583.928 126.9L585.152 124.128C580.22 122.148 569.78 119.664 563.732 118.728ZM599.192 101.304V104.508C600.02 104.472 601.82 104.4 603.152 104.4H620.396V121.392H602.72C601.208 121.392 599.66 121.284 598.724 121.176V124.452C599.696 124.38 601.316 124.308 602.792 124.308H620.396C620.36 125.172 620.36 125.928 620.324 126.324H623.564C623.528 125.748 623.42 124.128 623.42 122.832V104.256C623.42 103.392 623.492 102.276 623.528 101.448C622.808 101.484 621.728 101.52 620.864 101.52H603.116C601.964 101.52 600.38 101.448 599.192 101.304ZM662.444 103.176L660.176 101.34C659.672 101.52 658.844 101.628 657.836 101.628H636.38C635.12 101.628 633.716 101.484 632.708 101.34V104.58C633.428 104.508 634.976 104.364 636.38 104.364H657.548C655.748 107.604 651.608 112.896 646.316 116.856C643.868 114.66 640.916 112.248 639.584 111.276L637.244 113.184C639.152 114.516 643.328 118.116 645.488 120.276C647.756 122.616 650.636 125.784 651.968 127.62L654.596 125.532C653.156 123.768 650.6 121.068 648.44 118.908C654.38 114.372 658.952 108.504 661.544 104.292C661.76 103.968 662.084 103.572 662.444 103.176ZM673.172 99.612L671.12 101.808C673.784 103.608 678.284 107.46 680.084 109.332L682.352 107.064C680.336 105.048 675.728 101.304 673.172 99.612ZM670.076 123.732L671.984 126.684C677.996 125.568 682.532 123.372 686.132 121.104C691.568 117.684 695.78 112.788 698.228 108.288L696.5 105.228C694.412 109.656 690.02 114.984 684.476 118.476C681.056 120.6 676.376 122.796 670.076 123.732ZM724.616 100.08L722.636 100.98C723.824 102.6 724.94 104.58 725.84 106.452L727.892 105.516C727.064 103.824 725.516 101.412 724.616 100.08ZM728.972 98.28L726.992 99.216C728.216 100.8 729.368 102.708 730.34 104.616L732.356 103.608C731.492 101.952 729.908 99.54 728.972 98.28ZM711.98 123.3C711.98 124.632 711.908 126.396 711.764 127.548H715.22C715.112 126.396 715.004 124.452 715.004 123.3V111.456C719 112.716 725.228 115.092 729.116 117.216L730.376 114.156C726.56 112.248 719.756 109.692 715.004 108.216V102.348C715.004 101.268 715.112 99.72 715.256 98.604H711.692C711.908 99.72 711.98 101.34 711.98 102.348V123.3Z" fill="#C50404"/>
<path d="M134 138L144.392 156H123.608L134 138Z" fill="#424242"/>
<path d="M134 256L123.608 238L144.392 238L134 256Z" fill="#424242"/>
<path d="M75 197L93 186.608L93 207.392L75 197Z" fill="#424242"/>
<path d="M193 195L175 205.392L175 184.608L193 195Z" fill="#424242"/>
</svg>
