<svg width="165" height="165" viewBox="0 0 165 165" fill="none" xmlns="http://www.w3.org/2000/svg">
<rect x="47" width="70" height="165" rx="5" fill="#EDEDED"/>
<rect y="47" width="165" height="70" rx="5" fill="#EDEDED"/>
<path d="M107 62.5556C107 59.4873 107.827 57 108.846 57H153.154C154.173 57 155 59.4873 155 62.5556V101.444C155 104.513 154.173 107 153.154 107H108.846C107.827 107 107 104.513 107 101.444V62.5556Z" fill="black"/>
<path d="M10 62.5556C10 59.4873 12.4969 57 15.5769 57H149.423C152.503 57 155 59.4873 155 62.5556V101.444C155 104.513 152.503 107 149.423 107H15.5769C12.4969 107 10 104.513 10 101.444V62.5556Z" fill="black"/>
<path d="M10 62.5556C10 59.4873 10.8093 57 11.8077 57H55.1923C56.1907 57 57 59.4873 57 62.5556V101.444C57 104.513 56.1907 107 55.1923 107H11.8077C10.8093 107 10 104.513 10 101.444V62.5556Z" fill="black"/>
<path d="M57 15C57 12.2386 59.2386 10 62 10H102C104.761 10 107 12.2386 107 15V65H57V15Z" fill="black"/>
<path d="M57 100H107V150C107 152.761 104.761 155 102 155H62C59.2386 155 57 152.761 57 150V100Z" fill="black"/>
<path d="M82 23L92.3923 41H71.6077L82 23Z" fill="#424242"/>
<path d="M82 141L71.6077 123L92.3923 123L82 141Z" fill="#424242"/>
<path d="M23 82L41 71.6077L41 92.3923L23 82Z" fill="#424242"/>
<path d="M141 80L123 90.3923L123 69.6077L141 80Z" fill="#424242"/>
</svg>
